<svg width="100%" height="58" viewBox="0 0 220 58" xmlns="http://www.w3.org/2000/svg">
<path d="M115.642 5.90752H118.314L124.421 32.1689H123.098L117.372 7.40889H116.583L110.832 32.1689H109.56L115.642 5.90752ZM116.965 9.4701L120.044 22.7535H113.86L116.965 9.4701ZM116.965 15.0685L115.464 21.4811H118.466L116.965 15.0685ZM113.021 32.1689H111.697L113.682 23.5932H120.248L122.232 32.1689H120.96L119.255 24.8656H114.7L113.021 32.1689ZM138.442 15.0939H137.17V13.4398C137.17 9.26653 135.49 7.20532 132.182 7.20532C128.95 7.20532 127.169 9.82636 127.169 13.4398C127.169 15.4502 127.933 16.8497 128.95 17.7658C129.892 18.7074 131.037 19.1909 131.724 19.4962L132.335 19.7762C132.92 20.0306 133.938 20.3869 134.778 21.1503C135.643 21.9392 136.356 23.1606 136.356 24.891C136.356 28.1737 134.778 30.0568 132.182 30.0568C129.358 30.0568 128.009 28.4282 128.009 24.7129V23.0588H129.256V24.7129C129.256 26.2652 129.536 27.3594 130.07 28.0465C130.197 28.2246 130.401 28.3518 130.732 28.5299C131.037 28.7081 131.495 28.8099 132.182 28.8099C133.455 28.8099 134.167 28.1737 134.6 27.3848C135.007 26.6214 135.058 25.6035 135.058 24.891C135.058 23.6441 134.651 22.8298 134.04 22.2191C133.429 21.6592 132.615 21.2775 131.851 20.9467L131.215 20.6668C130.477 20.336 129.179 19.8016 128.06 18.7074C126.635 17.3078 125.922 15.5774 125.922 13.4398C125.922 11.1751 126.508 9.29198 127.653 7.96873C128.772 6.69638 130.325 5.90752 132.182 5.90752C134.752 5.90752 136.177 7.02719 136.915 7.96873C137.959 9.29198 138.442 11.1242 138.442 13.4398V15.0939ZM125.922 23.0588H127.169V24.7129C127.169 28.8099 128.874 30.922 132.182 30.922C133.76 30.922 135.058 30.3112 135.923 29.1407C136.737 28.0973 137.17 26.6214 137.17 24.891C137.17 22.8807 136.356 21.4811 135.389 20.5905C134.396 19.6998 133.251 19.2418 132.64 18.9873L132.08 18.7328C131.393 18.4529 130.401 18.0203 129.536 17.1806C128.696 16.3408 128.009 15.1702 128.009 13.4398C128.009 12.1929 128.263 10.8188 128.95 9.80092C129.612 8.75759 130.655 8.01962 132.182 8.01962C134.931 8.01962 136.356 9.72458 136.356 13.4398V15.0939H135.058V13.4398C135.058 11.4041 134.6 10.2844 133.989 9.80092C133.404 9.29198 132.64 9.29198 132.182 9.29198C130.783 9.29198 130.121 10.0554 129.714 10.9715C129.307 11.8876 129.256 12.9564 129.256 13.4398C129.256 14.6867 129.688 15.5011 130.299 16.1372C130.91 16.7734 131.724 17.2315 132.564 17.5623L133.149 17.8167C133.811 18.0967 135.109 18.5547 136.254 19.6744C137.704 21.0231 138.442 22.7535 138.442 24.891C138.442 28.9371 136.203 32.1689 132.182 32.1689C128.009 32.1689 125.922 29.4206 125.922 24.7129V23.0588ZM143.404 20.6159V32.0925H142.157V19.369H145.516C149.206 19.369 150.911 17.4605 150.911 13.2108C150.911 9.0375 149.206 7.07808 145.516 7.07808H140.045V5.83118H145.516C147.756 5.83118 149.461 6.4928 150.606 7.7906C151.675 9.01206 152.209 10.8188 152.209 13.2108C152.209 18.0203 150.021 20.6159 145.516 20.6159H143.404ZM140.045 7.94328H141.292V32.0925H140.045V7.94328ZM142.157 18.5293V7.94328H145.516C148.748 7.94328 150.097 9.4701 150.097 13.2108C150.097 16.9515 148.748 18.5293 145.516 18.5293H142.157ZM143.404 9.19019V17.2823H145.516C146.433 17.2823 147.069 17.1806 147.4 16.9515C147.705 16.748 147.934 16.5698 148.036 16.468C148.57 15.8573 148.825 14.7885 148.825 13.2108C148.825 11.5059 148.545 10.5134 148.01 9.92815C147.425 9.36832 146.611 9.19019 145.516 9.19019H143.404ZM154.983 5.88207V32.1434H153.736V5.88207H154.983ZM163.431 18.6056H155.848V5.88207H157.095V17.3587H162.133V5.88207H163.431V18.6056ZM164.246 32.1434V5.88207H165.518V32.1434H164.246ZM155.848 19.4453H163.431V32.1434H162.133V20.6923H157.095V32.1434H155.848V19.4453ZM180.786 24.6111C180.786 26.9777 180.277 28.759 179.285 30.0059C178.878 30.4639 178.394 30.9983 177.605 31.38C176.816 31.8126 175.824 32.0925 174.552 32.0925C171.981 32.0925 170.556 30.9474 169.793 30.0059C168.801 28.759 168.317 26.9777 168.317 24.6111V13.2872C168.317 10.9715 168.801 9.19019 169.793 7.91783C170.556 6.95085 171.981 5.83118 174.552 5.83118C177.096 5.83118 178.521 6.95085 179.285 7.91783C180.277 9.19019 180.786 10.9715 180.786 13.2872V24.6111ZM179.539 13.2872C179.539 9.26653 177.809 7.07808 174.552 7.07808C171.269 7.07808 169.564 9.26653 169.564 13.2872V24.6111C169.564 28.6317 171.294 30.8456 174.552 30.8456C177.783 30.8456 179.539 28.6317 179.539 24.6111V13.2872ZM178.674 24.6111C178.674 28.2246 177.274 30.0059 174.552 30.0059C171.803 30.0059 170.404 28.2246 170.404 24.6111V13.2872C170.404 11.4295 170.76 10.0808 171.472 9.21563C172.109 8.37588 173.152 7.94328 174.552 7.94328C175.926 7.94328 176.969 8.37588 177.605 9.21563C178.318 10.0808 178.674 11.4295 178.674 13.2872V24.6111ZM177.427 13.2872C177.427 11.2514 176.969 10.1826 176.358 9.69913C175.748 9.19019 175.01 9.19019 174.552 9.19019C174.017 9.19019 173.33 9.19019 172.719 9.69913C172.109 10.1826 171.651 11.2514 171.651 13.2872V24.6111C171.651 26.7232 172.109 27.7156 172.719 28.2246C173.33 28.7081 174.017 28.759 174.552 28.759C175.01 28.759 175.748 28.7081 176.358 28.2246C176.969 27.7156 177.427 26.7232 177.427 24.6111V13.2872ZM194.909 32.1689H193.637V24.4075C193.637 22.6517 193.128 21.2775 192.11 20.2342C191.677 19.8525 191.169 19.5217 190.609 19.2672C192.594 18.5293 193.611 16.5698 193.611 13.389C193.611 9.16474 191.932 7.20532 188.191 7.20532H182.746V5.90752H188.191C192.721 5.90752 194.858 8.50312 194.858 13.389C194.858 15.8064 194.324 17.6641 193.281 18.911C193.255 18.9619 193.179 19.0127 193.128 19.0891C193.077 19.1654 193.001 19.2418 192.924 19.2672C194.197 20.5141 194.909 22.2191 194.909 24.4075V32.1689ZM182.746 8.01962H183.992V32.1689H182.746V8.01962ZM184.832 18.8092V8.01962H188.191C191.423 8.01962 192.746 9.57189 192.746 13.389C192.746 17.2315 191.423 18.8092 188.191 18.8092H184.832ZM186.079 9.29198V17.5623H188.191C189.082 17.5623 189.718 17.4605 190.074 17.2315C190.405 17.0279 190.609 16.8497 190.71 16.748C191.245 16.0609 191.499 14.9667 191.499 13.389C191.499 11.6586 191.219 10.6152 190.685 10.0045C190.1 9.44466 189.285 9.29198 188.191 9.29198H186.079ZM192.823 32.1689H191.525V24.4075C191.525 22.0918 190.431 20.9467 188.191 20.9467H186.079V32.1689H184.832V19.6744H188.191C191.143 19.6744 192.823 21.3793 192.823 24.4075V32.1689ZM198.65 32.1434V5.88207H199.897V32.1434H198.65ZM202.009 32.1434H200.762V5.88207H202.009V32.1434ZM211.246 5.90752H213.918L220 32.1689H218.677L212.951 7.40889H212.162L206.437 32.1689H205.139L211.246 5.90752ZM212.544 9.4701L215.623 22.7535H209.465L212.544 9.4701ZM212.544 15.0685L211.068 21.4811H214.045L212.544 15.0685ZM208.6 32.1689H207.276L209.287 23.5932H215.827L217.837 32.1689H216.539L214.834 24.8656H210.279L208.6 32.1689Z" />
<path d="M73.5856 57.5676C71.7224 57.5676 69.901 57.0151 68.3518 55.9799C66.8027 54.9448 65.5952 53.4735 64.8822 51.7521C64.1692 50.0308 63.9826 48.1366 64.3461 46.3093C64.7096 44.4819 65.6068 42.8033 66.9243 41.4858C68.2418 40.1683 69.9203 39.2711 71.7477 38.9076C73.5751 38.5441 75.4693 38.7307 77.1906 39.4437C78.912 40.1567 80.3833 41.3642 81.4184 42.9134C82.4535 44.4625 83.006 46.2839 83.006 48.1471C83.006 50.6456 82.0135 53.0417 80.2468 54.8084C78.4802 56.5751 76.084 57.5676 73.5856 57.5676ZM73.5856 41.0817C72.1882 41.0817 70.8222 41.4961 69.6603 42.2725C68.4984 43.0488 67.5928 44.1523 67.058 45.4433C66.5233 46.7343 66.3834 48.1549 66.656 49.5255C66.9286 50.896 67.6015 52.1549 68.5896 53.1431C69.5777 54.1312 70.8366 54.8041 72.2072 55.0767C73.5777 55.3493 74.9983 55.2094 76.2894 54.6746C77.5804 54.1399 78.6838 53.2343 79.4602 52.0724C80.2365 50.9105 80.6509 49.5445 80.6509 48.1471C80.6447 46.2773 79.8976 44.4863 78.5732 43.1664C77.2489 41.8464 75.4553 41.1053 73.5856 41.1053V41.0817ZM25.3174 57.5676C23.4543 57.5676 21.6329 57.0151 20.0837 55.9799C18.5345 54.9448 17.3271 53.4735 16.6141 51.7521C15.9011 50.0308 15.7145 48.1366 16.078 46.3093C16.4415 44.4819 17.3387 42.8033 18.6562 41.4858C19.9736 40.1683 21.6522 39.2711 23.4796 38.9076C25.307 38.5441 27.2011 38.7307 28.9225 39.4437C30.6439 40.1567 32.1151 41.3642 33.1503 42.9134C34.1854 44.4625 34.7379 46.2839 34.7379 48.1471C34.7379 50.6456 33.7454 53.0417 31.9787 54.8084C30.212 56.5751 27.8159 57.5676 25.3174 57.5676ZM25.3174 41.0817C23.9201 41.0817 22.554 41.4961 21.3921 42.2725C20.2303 43.0488 19.3247 44.1523 18.7899 45.4433C18.2552 46.7343 18.1152 48.1549 18.3879 49.5255C18.6605 50.896 19.3334 52.1549 20.3215 53.1431C21.3096 54.1312 22.5685 54.8041 23.9391 55.0767C25.3096 55.3493 26.7302 55.2094 28.0212 54.6746C29.3123 54.1399 30.4157 53.2343 31.1921 52.0724C31.9684 50.9105 32.3828 49.5445 32.3828 48.1471C32.3766 46.2773 31.6294 44.4863 30.3051 43.1664C28.9808 41.8464 27.1872 41.1053 25.3174 41.1053V41.0817Z" />
<path d="M25.3175 54.2586C24.1111 54.2586 22.9318 53.9009 21.9287 53.2307C20.9256 52.5604 20.1438 51.6078 19.6821 50.4932C19.2204 49.3786 19.0996 48.1521 19.335 46.9689C19.5703 45.7857 20.1513 44.6988 21.0044 43.8457C21.8574 42.9927 22.9443 42.4117 24.1275 42.1764C25.3108 41.941 26.5372 42.0618 27.6518 42.5235C28.7664 42.9851 29.719 43.767 30.3893 44.7701C31.0595 45.7732 31.4173 46.9525 31.4173 48.1589C31.4173 48.9599 31.2595 49.7531 30.953 50.4932C30.6464 51.2332 30.1971 51.9057 29.6307 52.4721C29.0643 53.0385 28.3919 53.4878 27.6518 53.7943C26.9117 54.1009 26.1186 54.2586 25.3175 54.2586ZM25.3175 44.4143C24.5769 44.4143 23.8529 44.6339 23.2371 45.0453C22.6213 45.4568 22.1414 46.0416 21.8579 46.7259C21.5745 47.4101 21.5004 48.1631 21.6448 48.8894C21.7893 49.6158 22.146 50.2831 22.6697 50.8068C23.1934 51.3305 23.8606 51.6871 24.587 51.8316C25.3134 51.9761 26.0663 51.9019 26.7505 51.6185C27.4348 51.3351 28.0196 50.8551 28.4311 50.2393C28.8425 49.6235 29.0622 48.8995 29.0622 48.1589C29.0622 47.1658 28.6676 46.2133 27.9654 45.511C27.2631 44.8088 26.3107 44.4143 25.3175 44.4143ZM73.5856 54.2586C72.3792 54.2586 71.1999 53.9009 70.1968 53.2307C69.1937 52.5604 68.4119 51.6078 67.9502 50.4932C67.4885 49.3786 67.3677 48.1521 67.6031 46.9689C67.8385 45.7857 68.4194 44.6988 69.2725 43.8457C70.1255 42.9927 71.2124 42.4117 72.3956 42.1764C73.5789 41.941 74.8053 42.0618 75.9199 42.5235C77.0345 42.9851 77.9872 43.767 78.6574 44.7701C79.3277 45.7732 79.6854 46.9525 79.6854 48.1589C79.6823 49.7757 79.0386 51.3254 77.8954 52.4686C76.7521 53.6119 75.2024 54.2555 73.5856 54.2586ZM73.5856 44.4143C72.845 44.4143 72.121 44.6339 71.5052 45.0453C70.8894 45.4568 70.4095 46.0416 70.1261 46.7259C69.8426 47.4101 69.7685 48.1631 69.913 48.8894C70.0575 49.6158 70.4141 50.2831 70.9378 50.8068C71.4615 51.3305 72.1287 51.6871 72.8551 51.8316C73.5815 51.9761 74.3344 51.9019 75.0187 51.6185C75.7029 51.3351 76.2877 50.8551 76.6992 50.2393C77.1107 49.6235 77.3303 48.8995 77.3303 48.1589C77.3303 47.6671 77.2334 47.1802 77.0452 46.7259C76.8571 46.2716 76.5812 45.8588 76.2335 45.511C75.8858 45.1633 75.473 44.8875 75.0187 44.6993C74.5643 44.5111 74.0774 44.4143 73.5856 44.4143Z" />
<path d="M95.3822 49.3364H85.1257C84.8134 49.3364 84.5139 49.2124 84.293 48.9915C84.0722 48.7707 83.9481 48.4712 83.9481 48.1589C83.9481 45.4106 82.8564 42.7748 80.913 40.8315C78.9697 38.8881 76.3339 37.7964 73.5856 37.7964C70.8373 37.7964 68.2016 38.8881 66.2582 40.8315C64.3149 42.7748 63.2231 45.4106 63.2231 48.1589C63.2231 48.4712 63.0991 48.7707 62.8782 48.9915C62.6574 49.2124 62.3579 49.3364 62.0456 49.3364H36.8576C36.5453 49.3364 36.2458 49.2124 36.0249 48.9915C35.8041 48.7707 35.68 48.4712 35.68 48.1589C35.68 45.4106 34.5883 42.7748 32.6449 40.8315C30.7016 38.8881 28.0658 37.7964 25.3175 37.7964C22.5692 37.7964 19.9335 38.8881 17.9901 40.8315C16.0468 42.7748 14.955 45.4106 14.955 48.1589C14.955 48.4712 14.8309 48.7707 14.6101 48.9915C14.3893 49.2124 14.0897 49.3364 13.7774 49.3364H1.17756C0.865251 49.3364 0.565734 49.2124 0.344899 48.9915C0.124064 48.7707 0 48.4712 0 48.1589V39.8335C0 39.5212 0.124064 39.2217 0.344899 39.0009C0.565734 38.78 0.865251 38.656 1.17756 38.656H3.53268V21.4754C3.53422 21.2098 3.62551 20.9525 3.79174 20.7453L19.571 0.879908C19.6807 0.741128 19.8202 0.628834 19.9792 0.551367C20.1382 0.4739 20.3126 0.43325 20.4895 0.432434H62.7403C62.9172 0.43325 63.0916 0.4739 63.2506 0.551367C63.4096 0.628834 63.5492 0.741128 63.6588 0.879908L79.0613 20.3096H91.8496C92.1619 20.3096 92.4614 20.4337 92.6822 20.6545C92.9031 20.8754 93.0271 21.1749 93.0271 21.4872V38.656H95.3822C95.6945 38.656 95.9941 38.78 96.2149 39.0009C96.4357 39.2217 96.5598 39.5212 96.5598 39.8335V48.1589C96.5598 48.4712 96.4357 48.7707 96.2149 48.9915C95.9941 49.2124 95.6945 49.3364 95.3822 49.3364ZM86.2444 46.9813H94.2047V41.0111H91.8496C91.5373 41.0111 91.2377 40.887 91.0169 40.6662C90.7961 40.4454 90.672 40.1458 90.672 39.8335V22.653H78.5078C78.331 22.6521 78.1565 22.6115 77.9975 22.534C77.8385 22.4566 77.699 22.3443 77.5893 22.2055L62.1751 2.78755H21.0547L5.88779 21.9347V39.8335C5.88779 40.1458 5.76373 40.4454 5.54289 40.6662C5.32206 40.887 5.02254 41.0111 4.71023 41.0111H2.35512V46.9813H12.647C12.9363 43.8224 14.3956 40.8856 16.7387 38.7473C19.0818 36.6089 22.1395 35.4234 25.3116 35.4234C28.4838 35.4234 31.5414 36.6089 33.8845 38.7473C36.2276 40.8856 37.687 43.8224 37.9763 46.9813H60.9151C61.2044 43.8224 62.6638 40.8856 65.0069 38.7473C67.3499 36.6089 70.4076 35.4234 73.5797 35.4234C76.7519 35.4234 79.8095 36.6089 82.1526 38.7473C84.4957 40.8856 85.9551 43.8224 86.2444 46.9813Z" />
<path d="M32.7479 22.6529C32.4356 22.6529 32.136 22.5289 31.9152 22.3081C31.6944 22.0872 31.5703 21.7877 31.5703 21.4754V6.53217C31.5703 6.21986 31.6944 5.92035 31.9152 5.69951C32.136 5.47868 32.4356 5.35461 32.7479 5.35461C33.0602 5.35461 33.3597 5.47868 33.5805 5.69951C33.8014 5.92035 33.9254 6.21986 33.9254 6.53217V21.4872C33.9223 21.7974 33.7969 22.0939 33.5764 22.3122C33.3559 22.5305 33.0581 22.653 32.7479 22.6529ZM50.4819 22.6529C50.1696 22.6529 49.8701 22.5289 49.6492 22.3081C49.4284 22.0872 49.3043 21.7877 49.3043 21.4754V6.53217C49.3043 6.21986 49.4284 5.92035 49.6492 5.69951C49.8701 5.47868 50.1696 5.35461 50.4819 5.35461C50.7942 5.35461 51.0937 5.47868 51.3146 5.69951C51.5354 5.92035 51.6595 6.21986 51.6595 6.53217V21.4872C51.6564 21.7974 51.5309 22.0939 51.3104 22.3122C51.0899 22.5305 50.7922 22.653 50.4819 22.6529Z" />
<path d="M72.5966 22.653H10.5981C10.3825 22.6439 10.1734 22.5758 9.99381 22.456C9.81422 22.3362 9.67102 22.1694 9.57986 21.9737C9.48871 21.778 9.45309 21.561 9.47692 21.3464C9.50075 21.1319 9.5831 20.928 9.71498 20.7571L21.4906 5.81387C21.6002 5.67509 21.7397 5.56279 21.8988 5.48533C22.0578 5.40786 22.2322 5.36721 22.4091 5.36639H60.7739C60.9508 5.36721 61.1252 5.40786 61.2842 5.48533C61.4432 5.56279 61.5827 5.67509 61.6924 5.81387L73.5151 20.7571C73.652 20.9303 73.7374 21.1385 73.7616 21.3579C73.7859 21.5773 73.7479 21.7991 73.6522 21.998C73.5564 22.1969 73.4067 22.3649 73.22 22.4828C73.0334 22.6007 72.8174 22.6637 72.5966 22.6647V22.653ZM13.071 20.2978H70.1591L60.2087 7.70974H23.0332L13.071 20.2978Z" />
<path d="M109.638 46.629C109.702 46.4883 109.78 46.3063 109.872 46.083C109.961 45.8596 110.054 45.618 110.152 45.358C110.25 45.101 110.351 44.8364 110.455 44.5641C110.559 44.2918 110.655 44.0334 110.744 43.7886C110.832 43.5439 110.91 43.3252 110.978 43.1324C111.045 42.9397 111.094 42.7929 111.125 42.6919C110.852 42.8021 110.62 42.9703 110.427 43.1967C110.234 43.4231 110.089 43.7076 109.991 44.0502C109.893 44.0165 109.803 43.9553 109.72 43.8666C109.641 43.781 109.587 43.6708 109.56 43.5362C109.603 43.3405 109.684 43.1615 109.803 42.9994C109.919 42.8372 110.068 42.6981 110.248 42.5818C110.429 42.4656 110.637 42.3768 110.872 42.3157C111.108 42.2514 111.36 42.2193 111.629 42.2193C111.972 42.2193 112.287 42.2698 112.575 42.3707C112.862 42.4717 113.108 42.6124 113.313 42.7929C113.518 42.9734 113.679 43.189 113.795 43.4399C113.911 43.6938 113.97 43.9752 113.97 44.2842C113.97 44.7033 113.892 45.104 113.736 45.4864C113.583 45.8658 113.375 46.2007 113.111 46.4914C112.848 46.785 112.542 47.0175 112.194 47.1888C111.848 47.3632 111.484 47.4504 111.102 47.4504C110.753 47.4504 110.453 47.3816 110.202 47.2439C109.951 47.1032 109.763 46.8982 109.638 46.629ZM111.905 42.5405C111.69 42.5405 111.487 42.5711 111.294 42.6323C111.484 42.6996 111.642 42.7715 111.767 42.8479C111.889 42.9214 111.975 42.9795 112.024 43.0223C111.987 43.0713 111.937 43.1554 111.873 43.2747C111.805 43.394 111.727 43.5393 111.638 43.7106C111.553 43.8819 111.46 44.0701 111.359 44.275C111.261 44.4769 111.164 44.6849 111.069 44.8991C110.828 45.4436 110.652 45.8719 110.542 46.1839C110.432 46.4959 110.377 46.7131 110.377 46.8355C110.438 46.8569 110.511 46.8707 110.597 46.8768C110.683 46.886 110.774 46.8906 110.872 46.8906C111.218 46.8906 111.547 46.811 111.859 46.652C112.168 46.4898 112.44 46.2742 112.676 46.005C112.908 45.7358 113.092 45.4222 113.226 45.0643C113.361 44.7064 113.428 44.3301 113.428 43.9355C113.428 43.4949 113.292 43.1523 113.02 42.9076C112.744 42.6629 112.373 42.5405 111.905 42.5405ZM121.789 43.4215C121.789 43.6265 121.741 43.8207 121.646 44.0043C121.555 44.1848 121.428 44.3469 121.266 44.4907C121.103 44.6345 120.914 44.7553 120.697 44.8532C120.476 44.9541 120.238 45.0214 119.981 45.0551C120.045 45.2478 120.123 45.4451 120.215 45.647C120.306 45.852 120.406 46.0478 120.513 46.2344C120.62 46.4241 120.732 46.5984 120.848 46.7575C120.964 46.9166 121.077 47.0466 121.188 47.1475C121.166 47.1904 121.136 47.2332 121.096 47.276C121.056 47.3188 121.009 47.3586 120.953 47.3953C120.901 47.432 120.846 47.4626 120.788 47.4871C120.73 47.5085 120.675 47.5192 120.623 47.5192C120.528 47.5192 120.438 47.4749 120.352 47.3861C120.267 47.2974 120.181 47.1552 120.095 46.9594C120.007 46.7636 119.915 46.5112 119.82 46.2023C119.722 45.8902 119.615 45.5155 119.499 45.078C119.453 45.078 119.406 45.078 119.357 45.078C119.311 45.078 119.276 45.075 119.251 45.0689C119.221 45.0505 119.188 45.0199 119.155 44.9771C119.038 45.2249 118.934 45.4589 118.843 45.6792C118.754 45.8964 118.674 46.1074 118.604 46.3124C118.534 46.5143 118.471 46.7101 118.416 46.8997C118.364 47.0925 118.318 47.2867 118.278 47.4825C118.135 47.4489 118.009 47.3861 117.902 47.2944C117.795 47.2057 117.694 47.0802 117.599 46.9181C117.614 46.8783 117.633 46.8401 117.654 46.8034C117.673 46.7667 117.697 46.7162 117.728 46.652C117.758 46.5847 117.795 46.499 117.838 46.395C117.884 46.294 117.943 46.1579 118.017 45.9866C118.093 45.8153 118.183 45.6057 118.287 45.358C118.395 45.1071 118.523 44.8043 118.673 44.4494C118.74 44.2903 118.798 44.1511 118.847 44.0318C118.896 43.9125 118.941 43.7978 118.98 43.6877C119.017 43.5806 119.052 43.472 119.086 43.3619C119.116 43.2518 119.15 43.1263 119.187 42.9856C118.988 43.0529 118.804 43.1294 118.636 43.215C118.468 43.2976 118.327 43.3864 118.214 43.4812C118.177 43.4537 118.138 43.4154 118.095 43.3665C118.055 43.3145 118.018 43.2563 117.985 43.1921C117.951 43.1309 117.92 43.0682 117.893 43.004C117.868 42.9397 117.853 42.8816 117.847 42.8296C117.975 42.7439 118.133 42.6659 118.32 42.5956C118.506 42.5222 118.705 42.4579 118.916 42.4028C119.124 42.3508 119.338 42.3095 119.559 42.279C119.776 42.2484 119.979 42.2331 120.169 42.2331C120.683 42.2331 121.08 42.3386 121.362 42.5497C121.646 42.7638 121.789 43.0544 121.789 43.4215ZM120.141 42.7608L120.219 42.8847C120.189 42.9214 120.141 42.9978 120.077 43.1141C120.013 43.2303 119.939 43.368 119.857 43.5271C119.774 43.6892 119.687 43.8636 119.595 44.0502C119.5 44.2398 119.41 44.4265 119.325 44.61C119.646 44.61 119.942 44.5809 120.215 44.5228C120.484 44.4616 120.716 44.376 120.912 44.2658C121.111 44.1588 121.264 44.0303 121.371 43.8804C121.481 43.7336 121.536 43.5699 121.536 43.3894C121.536 43.1753 121.46 43.0116 121.307 42.8984C121.151 42.7852 120.912 42.7286 120.591 42.7286C120.518 42.7286 120.446 42.7317 120.375 42.7378C120.302 42.7439 120.224 42.7516 120.141 42.7608ZM125.262 46.5969C125.262 46.4409 125.287 46.2405 125.336 45.9958C125.385 45.748 125.449 45.4818 125.528 45.1973C125.608 44.9128 125.7 44.6222 125.804 44.3255C125.905 44.0288 126.009 43.7489 126.116 43.4858C126.223 43.2257 126.328 42.9963 126.432 42.7975C126.533 42.6017 126.625 42.461 126.708 42.3753C126.751 42.3784 126.807 42.3952 126.877 42.4258C126.948 42.4533 127.02 42.4854 127.093 42.5222C127.167 42.5619 127.232 42.6047 127.29 42.6506C127.352 42.6935 127.391 42.7348 127.41 42.7745C127.284 42.8847 127.16 43.0529 127.038 43.2793C126.916 43.5026 126.798 43.758 126.685 44.0456C126.572 44.3331 126.466 44.636 126.368 44.9541C126.27 45.2723 126.185 45.5813 126.111 45.8811C126.038 46.1809 125.981 46.4592 125.941 46.7162C125.899 46.9732 125.877 47.1812 125.877 47.3403C125.877 47.4137 125.885 47.4596 125.9 47.4779C125.805 47.4718 125.736 47.455 125.694 47.4274C125.651 47.3999 125.617 47.3708 125.593 47.3403C125.568 47.3066 125.547 47.2745 125.528 47.2439C125.51 47.2102 125.481 47.1842 125.441 47.1659C125.411 47.1537 125.385 47.1246 125.363 47.0787C125.342 47.0298 125.325 46.9778 125.313 46.9227C125.297 46.8646 125.285 46.8049 125.276 46.7437C125.267 46.6825 125.262 46.6336 125.262 46.5969ZM132.347 47.3724C132.249 47.4244 132.145 47.4504 132.035 47.4504C131.897 47.432 131.766 47.3984 131.641 47.3494C131.512 47.2974 131.419 47.2347 131.361 47.1613C131.324 46.9502 131.295 46.7575 131.273 46.5831C131.252 46.4088 131.235 46.2436 131.223 46.0876C131.211 45.9285 131.203 45.7786 131.2 45.6379C131.194 45.4941 131.191 45.3488 131.191 45.2019C131.191 45.0092 131.194 44.8058 131.2 44.5916C131.203 44.3775 131.208 44.1496 131.214 43.9079C131.22 43.6663 131.226 43.4062 131.232 43.1279C131.235 42.8525 131.237 42.5527 131.237 42.2285C131.292 42.2285 131.376 42.2438 131.489 42.2744C131.599 42.308 131.709 42.3463 131.819 42.3891C131.927 42.4319 132.023 42.4747 132.109 42.5176C132.194 42.5634 132.242 42.6017 132.251 42.6323C132.208 42.7516 132.171 42.9076 132.141 43.1003C132.107 43.293 132.081 43.5072 132.063 43.7427C132.044 43.9783 132.031 44.2276 132.021 44.4907C132.012 44.7507 132.008 45.0092 132.008 45.2662C132.008 45.4589 132.009 45.6317 132.012 45.7847C132.018 45.9346 132.024 46.0707 132.031 46.1931C132.037 46.3155 132.046 46.4302 132.058 46.5372C132.07 46.6413 132.086 46.7437 132.104 46.8447C132.223 46.4806 132.355 46.1166 132.499 45.7526C132.642 45.3885 132.791 45.0383 132.944 44.7018C133.094 44.3683 133.243 44.0548 133.393 43.7611C133.543 43.4705 133.686 43.2166 133.82 42.9994C133.958 42.7852 134.08 42.6155 134.187 42.49C134.294 42.3615 134.381 42.2927 134.449 42.2835C134.495 42.2927 134.545 42.3111 134.6 42.3386C134.652 42.3661 134.703 42.3998 134.752 42.4396C134.798 42.4793 134.84 42.5222 134.88 42.568C134.917 42.6139 134.946 42.6613 134.967 42.7103C134.811 42.7654 134.642 42.8954 134.458 43.1003C134.277 43.3053 134.094 43.5531 133.907 43.8437C133.724 44.1312 133.546 44.4463 133.375 44.789C133.201 45.1285 133.043 45.4604 132.902 45.7847C132.765 46.112 132.647 46.4164 132.549 46.6978C132.448 46.9823 132.381 47.2072 132.347 47.3724ZM140.134 44.2245C140.275 44.2245 140.385 44.2628 140.465 44.3393C140.544 44.4188 140.584 44.5259 140.584 44.6605C140.584 44.6972 140.581 44.7324 140.575 44.766C140.569 44.8027 140.561 44.8348 140.552 44.8624C140.497 44.8532 140.434 44.8455 140.364 44.8394C140.296 44.8333 140.215 44.8303 140.12 44.8303C139.937 44.8303 139.75 44.8455 139.561 44.8761C139.374 44.9098 139.195 44.9373 139.024 44.9587C138.926 45.1851 138.836 45.4038 138.753 45.6149C138.67 45.8291 138.6 46.0233 138.542 46.1977C138.487 46.372 138.442 46.5235 138.409 46.652C138.378 46.7804 138.36 46.8768 138.354 46.941C138.702 46.8707 139.053 46.8095 139.405 46.7575C139.759 46.7055 140.131 46.6673 140.52 46.6428C140.565 46.7131 140.605 46.7911 140.639 46.8768C140.669 46.9625 140.685 47.0558 140.685 47.1567C140.685 47.1812 140.685 47.2087 140.685 47.2393C140.685 47.2699 140.682 47.299 140.676 47.3265C140.553 47.3234 140.426 47.3204 140.295 47.3173C140.163 47.3173 139.99 47.3173 139.776 47.3173C139.632 47.3173 139.498 47.3204 139.372 47.3265C139.247 47.3326 139.12 47.3418 138.992 47.354C138.863 47.3663 138.727 47.3831 138.583 47.4045C138.439 47.4259 138.277 47.4519 138.097 47.4825C137.901 47.406 137.711 47.2179 137.528 46.9181C137.598 46.7621 137.699 46.5265 137.831 46.2114C137.962 45.8994 138.129 45.4788 138.331 44.9496C138.138 44.8914 138.011 44.7844 137.95 44.6284C137.971 44.6069 138.034 44.5809 138.138 44.5503C138.239 44.5167 138.364 44.483 138.514 44.4494C138.579 44.2842 138.634 44.1389 138.68 44.0135C138.725 43.888 138.765 43.7718 138.799 43.6647C138.832 43.5546 138.863 43.4475 138.891 43.3435C138.918 43.2365 138.946 43.1217 138.973 42.9994C138.823 42.9902 138.706 42.9489 138.62 42.8755C138.534 42.799 138.491 42.7011 138.491 42.5818C138.491 42.5482 138.496 42.5069 138.505 42.4579C138.517 42.412 138.53 42.3723 138.542 42.3386C138.628 42.3508 138.71 42.3585 138.79 42.3615C138.869 42.3677 138.973 42.3707 139.102 42.3707C139.371 42.3707 139.623 42.3631 139.859 42.3478C140.094 42.3325 140.307 42.3157 140.497 42.2973C140.686 42.282 140.85 42.2667 140.988 42.2514C141.125 42.2361 141.231 42.2285 141.304 42.2285C141.402 42.2285 141.489 42.279 141.566 42.3799C141.642 42.4839 141.7 42.6307 141.74 42.8204C141.609 42.8051 141.5 42.7959 141.414 42.7929C141.332 42.7898 141.258 42.7883 141.194 42.7883C140.959 42.7883 140.743 42.799 140.547 42.8204C140.354 42.8449 140.168 42.8694 139.987 42.8938C139.96 42.9336 139.931 42.9841 139.9 43.0453C139.866 43.1034 139.825 43.186 139.776 43.293C139.724 43.4001 139.66 43.5347 139.584 43.6969C139.51 43.862 139.42 44.0655 139.313 44.3071C139.475 44.2827 139.628 44.2628 139.772 44.2475C139.915 44.2322 140.036 44.2245 140.134 44.2245ZM150.619 43.0682C150.448 43.0682 150.316 43.0208 150.225 42.926C150.133 42.8281 150.087 42.7103 150.087 42.5726C150.087 42.539 150.092 42.4992 150.101 42.4533C150.113 42.4044 150.127 42.3631 150.142 42.3294C150.197 42.357 150.28 42.3753 150.39 42.3845C150.5 42.3967 150.627 42.4028 150.771 42.4028C150.991 42.4028 151.239 42.3921 151.514 42.3707C151.789 42.3524 152.054 42.3325 152.308 42.3111C152.562 42.2897 152.785 42.2698 152.978 42.2514C153.171 42.23 153.294 42.2193 153.35 42.2193C153.509 42.2193 153.623 42.279 153.694 42.3983C153.764 42.5145 153.816 42.672 153.85 42.8709C153.74 42.8617 153.629 42.8541 153.519 42.8479C153.409 42.8418 153.316 42.8388 153.239 42.8388C153.102 42.8388 152.964 42.8434 152.826 42.8525C152.686 42.8587 152.545 42.8709 152.404 42.8892C152.343 43.0147 152.277 43.1615 152.207 43.3298C152.134 43.498 152.062 43.6739 151.991 43.8575C151.921 44.0441 151.854 44.2276 151.789 44.4081C151.725 44.5916 151.669 44.7553 151.62 44.8991C151.525 45.1836 151.442 45.4451 151.372 45.6837C151.301 45.9224 151.24 46.1457 151.188 46.3537C151.133 46.5617 151.087 46.7606 151.051 46.9502C151.011 47.1368 150.976 47.3204 150.945 47.5009C150.658 47.458 150.417 47.2791 150.225 46.964C150.261 46.8294 150.304 46.6841 150.353 46.5281C150.402 46.372 150.459 46.1946 150.523 45.9958C150.59 45.7969 150.67 45.5706 150.762 45.3167C150.85 45.0658 150.953 44.7798 151.069 44.4586C151.112 44.3362 151.156 44.2108 151.202 44.0823C151.251 43.9508 151.297 43.8207 151.34 43.6923C151.386 43.5638 151.427 43.4399 151.464 43.3206C151.5 43.2013 151.531 43.0911 151.555 42.9902C151.375 43.0116 151.205 43.03 151.046 43.0453C150.884 43.0606 150.742 43.0682 150.619 43.0682ZM158.842 46.5877C158.842 46.4103 158.871 46.1793 158.929 45.8948C158.991 45.6134 159.07 45.3121 159.168 44.9909C158.887 45.0123 158.604 45.0398 158.319 45.0735C158.035 45.1071 157.787 45.127 157.576 45.1331C157.383 45.5828 157.23 45.9958 157.117 46.372C157.004 46.7514 156.915 47.1215 156.851 47.4825C156.689 47.4427 156.554 47.3754 156.447 47.2806C156.34 47.1827 156.24 47.0619 156.149 46.9181C156.182 46.8477 156.222 46.759 156.268 46.652C156.314 46.5449 156.367 46.4164 156.429 46.2665C156.49 46.1136 156.56 45.9361 156.64 45.7342C156.719 45.5293 156.811 45.2922 156.915 45.023C156.774 44.9618 156.679 44.8777 156.63 44.7706C156.652 44.7553 156.701 44.737 156.777 44.7155C156.851 44.6972 156.944 44.6773 157.057 44.6559L157.14 44.4494C157.228 44.22 157.302 44.0257 157.36 43.8666C157.418 43.7076 157.467 43.5515 157.507 43.3986C157.55 43.2487 157.588 43.0804 157.622 42.8938C157.658 42.7103 157.703 42.4778 157.755 42.1964C157.935 42.23 158.099 42.3095 158.246 42.435C158.396 42.5573 158.524 42.7072 158.631 42.8847C158.591 42.9336 158.544 43.0101 158.489 43.1141C158.434 43.2181 158.373 43.3405 158.305 43.4812C158.238 43.625 158.166 43.7856 158.09 43.963C158.013 44.1435 157.929 44.3316 157.837 44.5274C158.103 44.4938 158.373 44.4616 158.645 44.431C158.917 44.4004 159.159 44.379 159.37 44.3668C159.446 44.1435 159.526 43.9263 159.608 43.7152C159.691 43.5041 159.774 43.3099 159.856 43.1324C159.939 42.9581 160.017 42.8036 160.09 42.669C160.167 42.5374 160.234 42.4396 160.292 42.3753C160.335 42.3784 160.392 42.3952 160.462 42.4258C160.532 42.4533 160.604 42.4854 160.678 42.5222C160.751 42.5619 160.818 42.6047 160.88 42.6506C160.938 42.6935 160.977 42.7348 160.999 42.7745C160.922 42.8479 160.846 42.9412 160.769 43.0544C160.693 43.1707 160.616 43.3038 160.54 43.4537C160.467 43.6035 160.393 43.7672 160.32 43.9446C160.246 44.119 160.177 44.301 160.113 44.4907C160.199 44.5672 160.242 44.6635 160.242 44.7798C160.242 44.8593 160.225 44.9343 160.191 45.0046C160.151 44.9954 160.113 44.9893 160.077 44.9863C160.037 44.9832 159.995 44.9802 159.953 44.9771C159.879 45.2096 159.813 45.439 159.755 45.6654C159.694 45.8918 159.644 46.1074 159.604 46.3124C159.561 46.5174 159.529 46.7055 159.508 46.8768C159.483 47.0481 159.471 47.1919 159.471 47.3081C159.471 47.351 159.472 47.3861 159.475 47.4137C159.475 47.4382 159.478 47.4596 159.485 47.4779C159.39 47.4718 159.321 47.455 159.278 47.4274C159.235 47.3999 159.203 47.3708 159.182 47.3403C159.16 47.3066 159.14 47.2745 159.122 47.2439C159.107 47.2102 159.079 47.1842 159.039 47.1659C159.009 47.1537 158.981 47.1246 158.957 47.0787C158.932 47.0298 158.911 46.9762 158.893 46.9181C158.874 46.8569 158.862 46.7973 158.856 46.7391C158.847 46.678 158.842 46.6275 158.842 46.5877ZM166.537 44.2245C166.678 44.2245 166.788 44.2628 166.868 44.3393C166.947 44.4188 166.987 44.5259 166.987 44.6605C166.987 44.6972 166.984 44.7324 166.978 44.766C166.972 44.8027 166.964 44.8348 166.955 44.8624C166.9 44.8532 166.837 44.8455 166.767 44.8394C166.7 44.8333 166.618 44.8303 166.524 44.8303C166.34 44.8303 166.153 44.8455 165.964 44.8761C165.777 44.9098 165.598 44.9373 165.427 44.9587C165.329 45.1851 165.239 45.4038 165.156 45.6149C165.074 45.8291 165.003 46.0233 164.945 46.1977C164.89 46.372 164.846 46.5235 164.812 46.652C164.781 46.7804 164.763 46.8768 164.757 46.941C165.106 46.8707 165.456 46.8095 165.808 46.7575C166.163 46.7055 166.534 46.6673 166.923 46.6428C166.969 46.7131 167.008 46.7911 167.042 46.8768C167.073 46.9625 167.088 47.0558 167.088 47.1567C167.088 47.1812 167.088 47.2087 167.088 47.2393C167.088 47.2699 167.085 47.299 167.079 47.3265C166.956 47.3234 166.83 47.3204 166.698 47.3173C166.566 47.3173 166.394 47.3173 166.179 47.3173C166.036 47.3173 165.901 47.3204 165.776 47.3265C165.65 47.3326 165.523 47.3418 165.395 47.354C165.266 47.3663 165.13 47.3831 164.986 47.4045C164.843 47.4259 164.68 47.4519 164.5 47.4825C164.304 47.406 164.115 47.2179 163.931 46.9181C164.001 46.7621 164.102 46.5265 164.234 46.2114C164.365 45.8994 164.532 45.4788 164.734 44.9496C164.541 44.8914 164.414 44.7844 164.353 44.6284C164.375 44.6069 164.437 44.5809 164.541 44.5503C164.642 44.5167 164.768 44.483 164.918 44.4494C164.982 44.2842 165.037 44.1389 165.083 44.0135C165.129 43.888 165.168 43.7718 165.202 43.6647C165.236 43.5546 165.266 43.4475 165.294 43.3435C165.321 43.2365 165.349 43.1217 165.376 42.9994C165.227 42.9902 165.109 42.9489 165.023 42.8755C164.937 42.799 164.895 42.7011 164.895 42.5818C164.895 42.5482 164.899 42.5069 164.908 42.4579C164.921 42.412 164.933 42.3723 164.945 42.3386C165.031 42.3508 165.113 42.3585 165.193 42.3615C165.272 42.3677 165.376 42.3707 165.505 42.3707C165.774 42.3707 166.027 42.3631 166.262 42.3478C166.498 42.3325 166.71 42.3157 166.9 42.2973C167.09 42.282 167.253 42.2667 167.391 42.2514C167.529 42.2361 167.634 42.2285 167.707 42.2285C167.805 42.2285 167.893 42.279 167.969 42.3799C168.046 42.4839 168.104 42.6307 168.143 42.8204C168.012 42.8051 167.903 42.7959 167.818 42.7929C167.735 42.7898 167.662 42.7883 167.597 42.7883C167.362 42.7883 167.146 42.799 166.95 42.8204C166.758 42.8449 166.571 42.8694 166.391 42.8938C166.363 42.9336 166.334 42.9841 166.303 43.0453C166.27 43.1034 166.228 43.186 166.179 43.293C166.127 43.4001 166.063 43.5347 165.987 43.6969C165.913 43.862 165.823 44.0655 165.716 44.3071C165.878 44.2827 166.031 44.2628 166.175 44.2475C166.319 44.2322 166.439 44.2245 166.537 44.2245ZM178.44 44.2842C178.578 44.2842 178.687 44.3224 178.766 44.3989C178.846 44.4754 178.885 44.5825 178.885 44.7201C178.885 44.7538 178.882 44.789 178.876 44.8257C178.873 44.8624 178.866 44.893 178.853 44.9174C178.798 44.9113 178.736 44.9052 178.665 44.8991C178.598 44.8899 178.517 44.8853 178.422 44.8853C178.229 44.8853 178.037 44.9037 177.844 44.9404C177.651 44.974 177.468 45.0016 177.293 45.023C177.101 45.4757 176.941 45.9009 176.816 46.2986C176.691 46.6994 176.594 47.094 176.527 47.4825C176.38 47.4489 176.252 47.3861 176.141 47.2944C176.031 47.2057 175.926 47.0802 175.825 46.9181C175.855 46.8477 175.892 46.7651 175.935 46.6703C175.978 46.5724 176.03 46.4501 176.091 46.3032C176.149 46.1564 176.221 45.9759 176.307 45.7618C176.389 45.5507 176.489 45.2983 176.605 45.0046C176.424 44.9434 176.307 44.8379 176.252 44.688C176.273 44.6666 176.333 44.6421 176.431 44.6146C176.528 44.5871 176.648 44.5565 176.788 44.5228C176.853 44.3546 176.909 44.2047 176.958 44.0731C177.004 43.9446 177.047 43.8207 177.087 43.7014C177.123 43.5852 177.159 43.4705 177.192 43.3573C177.223 43.241 177.252 43.1187 177.279 42.9902H177.247C177.085 42.9902 176.954 42.952 176.853 42.8755C176.752 42.799 176.701 42.6981 176.701 42.5726C176.701 42.539 176.706 42.4992 176.715 42.4533C176.727 42.4044 176.741 42.3631 176.756 42.3294C176.839 42.3417 176.92 42.3508 177 42.357C177.079 42.36 177.183 42.3615 177.312 42.3615C177.581 42.3615 177.833 42.3539 178.069 42.3386C178.304 42.3233 178.517 42.308 178.707 42.2927C178.899 42.2744 179.063 42.2575 179.198 42.2422C179.335 42.2269 179.441 42.2193 179.514 42.2193C179.612 42.2193 179.699 42.2713 179.776 42.3753C179.855 42.4793 179.916 42.6246 179.959 42.8112C179.822 42.799 179.711 42.7914 179.629 42.7883C179.543 42.7822 179.468 42.7791 179.404 42.7791C179.187 42.7791 178.986 42.7898 178.803 42.8112C178.622 42.8296 178.451 42.851 178.289 42.8755C178.261 42.9152 178.232 42.9642 178.202 43.0223C178.168 43.0835 178.125 43.1692 178.073 43.2793C178.024 43.3864 177.96 43.5286 177.881 43.706C177.801 43.8804 177.702 44.1022 177.582 44.3714C177.748 44.3469 177.907 44.3255 178.06 44.3071C178.212 44.2918 178.339 44.2842 178.44 44.2842ZM185.154 44.2245C185.294 44.2245 185.404 44.2628 185.484 44.3393C185.564 44.4188 185.603 44.5259 185.603 44.6605C185.603 44.6972 185.6 44.7324 185.594 44.766C185.588 44.8027 185.58 44.8348 185.571 44.8624C185.516 44.8532 185.455 44.8455 185.388 44.8394C185.317 44.8333 185.235 44.8303 185.14 44.8303C184.956 44.8303 184.771 44.8455 184.585 44.8761C184.395 44.9098 184.214 44.9373 184.043 44.9587C183.945 45.1851 183.855 45.4038 183.772 45.6149C183.693 45.8291 183.624 46.0233 183.566 46.1977C183.508 46.372 183.462 46.5235 183.428 46.652C183.398 46.7804 183.379 46.8768 183.373 46.941C183.722 46.8707 184.072 46.8095 184.424 46.7575C184.779 46.7055 185.151 46.6673 185.539 46.6428C185.588 46.7131 185.628 46.7911 185.658 46.8768C185.692 46.9625 185.709 47.0558 185.709 47.1567C185.709 47.1812 185.709 47.2087 185.709 47.2393C185.709 47.2699 185.704 47.299 185.695 47.3265C185.576 47.3234 185.449 47.3204 185.314 47.3173C185.183 47.3173 185.01 47.3173 184.796 47.3173C184.655 47.3173 184.52 47.3204 184.392 47.3265C184.266 47.3326 184.14 47.3418 184.011 47.354C183.883 47.3663 183.746 47.3831 183.603 47.4045C183.459 47.4259 183.297 47.4519 183.116 47.4825C182.92 47.406 182.731 47.2179 182.547 46.9181C182.621 46.7621 182.722 46.5265 182.85 46.2114C182.982 45.8994 183.148 45.4788 183.35 44.9496C183.158 44.8914 183.031 44.7844 182.969 44.6284C182.991 44.6069 183.054 44.5809 183.158 44.5503C183.259 44.5167 183.384 44.483 183.534 44.4494C183.598 44.2842 183.653 44.1389 183.699 44.0135C183.745 43.888 183.785 43.7718 183.818 43.6647C183.852 43.5546 183.883 43.4475 183.91 43.3435C183.938 43.2365 183.965 43.1217 183.993 42.9994C183.843 42.9902 183.725 42.9489 183.639 42.8755C183.554 42.799 183.511 42.7011 183.511 42.5818C183.511 42.5482 183.515 42.5069 183.525 42.4579C183.537 42.412 183.549 42.3723 183.561 42.3386C183.647 42.3508 183.73 42.3585 183.809 42.3615C183.889 42.3677 183.993 42.3707 184.121 42.3707C184.39 42.3707 184.643 42.3631 184.878 42.3478C185.114 42.3325 185.326 42.3157 185.516 42.2973C185.709 42.282 185.873 42.2667 186.007 42.2514C186.145 42.2361 186.25 42.2285 186.324 42.2285C186.422 42.2285 186.509 42.279 186.585 42.3799C186.665 42.4839 186.723 42.6307 186.76 42.8204C186.628 42.8051 186.521 42.7959 186.438 42.7929C186.353 42.7898 186.278 42.7883 186.214 42.7883C185.978 42.7883 185.762 42.799 185.567 42.8204C185.374 42.8449 185.187 42.8694 185.007 42.8938C184.982 42.9336 184.953 42.9841 184.92 43.0453C184.889 43.1034 184.848 43.186 184.796 43.293C184.744 43.4001 184.679 43.5347 184.603 43.6969C184.53 43.862 184.439 44.0655 184.332 44.3071C184.494 44.2827 184.647 44.2628 184.791 44.2475C184.935 44.2322 185.056 44.2245 185.154 44.2245ZM192.28 44.2245C192.421 44.2245 192.531 44.2628 192.61 44.3393C192.69 44.4188 192.73 44.5259 192.73 44.6605C192.73 44.6972 192.726 44.7324 192.72 44.766C192.714 44.8027 192.707 44.8348 192.697 44.8624C192.642 44.8532 192.58 44.8455 192.509 44.8394C192.442 44.8333 192.361 44.8303 192.266 44.8303C192.083 44.8303 191.896 44.8455 191.706 44.8761C191.52 44.9098 191.341 44.9373 191.169 44.9587C191.068 45.1851 190.978 45.4038 190.899 45.6149C190.816 45.8291 190.746 46.0233 190.688 46.1977C190.629 46.372 190.585 46.5235 190.554 46.652C190.521 46.7804 190.502 46.8768 190.499 46.941C190.845 46.8707 191.195 46.8095 191.55 46.7575C191.902 46.7055 192.274 46.6673 192.665 46.6428C192.711 46.7131 192.751 46.7911 192.785 46.8768C192.815 46.9625 192.83 47.0558 192.83 47.1567C192.83 47.1812 192.83 47.2087 192.83 47.2393C192.83 47.2699 192.826 47.299 192.817 47.3265C192.697 47.3234 192.572 47.3204 192.44 47.3173C192.306 47.3173 192.131 47.3173 191.917 47.3173C191.777 47.3173 191.644 47.3204 191.518 47.3265C191.393 47.3326 191.266 47.3418 191.137 47.354C191.009 47.3663 190.873 47.3831 190.729 47.4045C190.585 47.4259 190.423 47.4519 190.242 47.4825C190.047 47.406 189.855 47.2179 189.669 46.9181C189.742 46.7621 189.845 46.5265 189.976 46.2114C190.108 45.8994 190.273 45.4788 190.472 44.9496C190.279 44.8914 190.154 44.7844 190.096 44.6284C190.117 44.6069 190.178 44.5809 190.279 44.5503C190.383 44.5167 190.51 44.483 190.66 44.4494C190.724 44.2842 190.779 44.1389 190.825 44.0135C190.868 43.888 190.908 43.7718 190.945 43.6647C190.978 43.5546 191.009 43.4475 191.036 43.3435C191.064 43.2365 191.09 43.1217 191.114 42.9994C190.964 42.9902 190.847 42.9489 190.761 42.8755C190.675 42.799 190.633 42.7011 190.633 42.5818C190.633 42.5482 190.639 42.5069 190.651 42.4579C190.66 42.412 190.672 42.3723 190.688 42.3386C190.773 42.3508 190.856 42.3585 190.935 42.3615C191.012 42.3677 191.114 42.3707 191.243 42.3707C191.515 42.3707 191.769 42.3631 192.005 42.3478C192.24 42.3325 192.453 42.3157 192.642 42.2973C192.832 42.282 192.996 42.2667 193.133 42.2514C193.271 42.2361 193.377 42.2285 193.45 42.2285C193.548 42.2285 193.635 42.279 193.712 42.3799C193.788 42.4839 193.846 42.6307 193.886 42.8204C193.751 42.8051 193.643 42.7959 193.56 42.7929C193.477 42.7898 193.404 42.7883 193.34 42.7883C193.104 42.7883 192.889 42.799 192.693 42.8204C192.497 42.8449 192.31 42.8694 192.133 42.8938C192.105 42.9336 192.076 42.9841 192.046 43.0453C192.012 43.1034 191.969 43.186 191.917 43.293C191.868 43.4001 191.806 43.5347 191.729 43.6969C191.656 43.862 191.566 44.0655 191.458 44.3071C191.621 44.2827 191.774 44.2628 191.917 44.2475C192.061 44.2322 192.182 44.2245 192.28 44.2245ZM199.14 46.5969C199.247 46.7804 199.301 46.9579 199.301 47.1292C199.301 47.1689 199.297 47.2041 199.291 47.2347C199.285 47.2684 199.278 47.302 199.268 47.3357C199.195 47.3265 199.118 47.3204 199.039 47.3173C198.959 47.3112 198.877 47.3081 198.791 47.3081C198.69 47.3081 198.588 47.3112 198.484 47.3173C198.377 47.3234 198.259 47.3341 198.13 47.3494C198.002 47.3617 197.858 47.3785 197.699 47.3999C197.543 47.4213 197.359 47.4489 197.148 47.4825C197.051 47.4489 196.953 47.3816 196.855 47.2806C196.754 47.1797 196.66 47.0588 196.575 46.9181C196.618 46.8233 196.671 46.7055 196.735 46.5648C196.8 46.4271 196.875 46.2589 196.96 46.06C197.046 45.8612 197.142 45.6272 197.249 45.358C197.353 45.0918 197.465 44.7828 197.584 44.431C197.661 44.1985 197.728 43.9951 197.786 43.8207C197.841 43.6464 197.892 43.4766 197.938 43.3114C197.981 43.1462 198.023 42.9734 198.066 42.7929C198.109 42.6124 198.156 42.4044 198.208 42.1688C198.38 42.2025 198.528 42.2652 198.654 42.357C198.782 42.4518 198.903 42.5849 199.016 42.7562C198.982 42.8112 198.938 42.9 198.883 43.0223C198.828 43.1477 198.762 43.2992 198.686 43.4766C198.612 43.654 198.53 43.8559 198.438 44.0823C198.349 44.3056 198.256 44.5458 198.158 44.8027C198.063 45.0566 197.971 45.2952 197.883 45.5186C197.791 45.7388 197.71 45.9392 197.639 46.1197C197.569 46.3002 197.512 46.4546 197.47 46.5831C197.427 46.7116 197.405 46.808 197.405 46.8722C197.473 46.8692 197.535 46.8646 197.594 46.8584C197.649 46.8554 197.705 46.8477 197.763 46.8355C197.824 46.8263 197.89 46.8141 197.961 46.7988C198.031 46.7835 198.115 46.7636 198.213 46.7391C198.299 46.7177 198.378 46.6994 198.452 46.6841C198.525 46.6688 198.597 46.655 198.667 46.6428C198.738 46.6336 198.811 46.626 198.888 46.6198C198.961 46.6137 199.045 46.6061 199.14 46.5969ZM203.251 46.5969C203.251 46.4409 203.276 46.2405 203.325 45.9958C203.374 45.748 203.438 45.4818 203.518 45.1973C203.597 44.9128 203.689 44.6222 203.793 44.3255C203.894 44.0288 203.998 43.7489 204.105 43.4858C204.212 43.2257 204.317 42.9963 204.421 42.7975C204.522 42.6017 204.614 42.461 204.697 42.3753C204.74 42.3784 204.796 42.3952 204.867 42.4258C204.937 42.4533 205.009 42.4854 205.082 42.5222C205.156 42.5619 205.221 42.6047 205.28 42.6506C205.341 42.6935 205.38 42.7348 205.399 42.7745C205.273 42.8847 205.15 43.0529 205.027 43.2793C204.905 43.5026 204.787 43.758 204.674 44.0456C204.561 44.3331 204.455 44.636 204.357 44.9541C204.259 45.2723 204.174 45.5813 204.1 45.8811C204.027 46.1809 203.97 46.4592 203.93 46.7162C203.888 46.9732 203.866 47.1812 203.866 47.3403C203.866 47.4137 203.874 47.4596 203.889 47.4779C203.794 47.4718 203.726 47.455 203.683 47.4274C203.64 47.3999 203.606 47.3708 203.582 47.3403C203.557 47.3066 203.536 47.2745 203.518 47.2439C203.499 47.2102 203.47 47.1842 203.43 47.1659C203.4 47.1537 203.374 47.1246 203.352 47.0787C203.331 47.0298 203.314 46.9778 203.302 46.9227C203.287 46.8646 203.274 46.8049 203.265 46.7437C203.256 46.6825 203.251 46.6336 203.251 46.5969ZM208.868 47.4504C208.623 47.377 208.458 47.3081 208.372 47.2439C208.287 47.1766 208.244 47.0848 208.244 46.9686C208.244 46.8401 208.273 46.6596 208.331 46.4271C208.392 46.1916 208.47 45.9315 208.565 45.647C208.663 45.3595 208.775 45.0597 208.9 44.7477C209.022 44.4326 209.148 44.1328 209.276 43.8483C209.405 43.5607 209.53 43.2976 209.653 43.059C209.775 42.8204 209.884 42.6353 209.978 42.5038L209.932 42.2331C209.994 42.2331 210.078 42.2484 210.185 42.279C210.292 42.3095 210.399 42.3463 210.506 42.3891C210.616 42.4319 210.713 42.4747 210.795 42.5176C210.881 42.5634 210.927 42.6017 210.933 42.6323C210.911 42.7363 210.895 42.8923 210.882 43.1003C210.87 43.3053 210.864 43.5255 210.864 43.7611C210.864 44.2291 210.882 44.6865 210.919 45.1331C210.956 45.5828 211.04 46.0386 211.171 46.5005C211.242 46.1579 211.317 45.8168 211.396 45.4773C211.473 45.1346 211.554 44.8088 211.639 44.4999C211.725 44.1878 211.811 43.8988 211.896 43.6326C211.982 43.3695 212.065 43.137 212.144 42.9351C212.224 42.7363 212.299 42.5803 212.369 42.4671C212.436 42.3539 212.498 42.2927 212.553 42.2835C212.602 42.2927 212.654 42.3111 212.709 42.3386C212.764 42.3661 212.817 42.3998 212.869 42.4396C212.921 42.4793 212.969 42.5222 213.011 42.568C213.054 42.6139 213.088 42.6613 213.112 42.7103C212.975 42.7654 212.839 42.8954 212.704 43.1003C212.569 43.3053 212.441 43.5546 212.319 43.8483C212.196 44.142 212.083 44.4601 211.979 44.8027C211.875 45.1453 211.783 45.4834 211.704 45.8168C211.624 46.1472 211.561 46.4546 211.516 46.7391C211.47 47.0206 211.445 47.247 211.442 47.4183C211.442 47.4274 211.444 47.4336 211.447 47.4366C211.434 47.4427 211.421 47.4458 211.405 47.4458C211.39 47.4458 211.376 47.4458 211.364 47.4458C211.168 47.4458 210.994 47.4213 210.841 47.3724C210.688 47.3204 210.589 47.25 210.543 47.1613C210.454 46.8003 210.379 46.4531 210.318 46.1197C210.257 45.7862 210.206 45.4528 210.166 45.1193C210.127 44.7859 210.095 44.4479 210.07 44.1052C210.046 43.7657 210.027 43.4093 210.015 43.0361C209.936 43.1646 209.85 43.3328 209.758 43.5408C209.669 43.7489 209.582 43.9768 209.497 44.2245C209.411 44.4723 209.328 44.7339 209.249 45.0092C209.169 45.2845 209.099 45.5522 209.038 45.8122C208.98 46.0723 208.934 46.32 208.9 46.5556C208.863 46.7881 208.845 46.99 208.845 47.1613C208.845 47.25 208.846 47.3143 208.85 47.354C208.853 47.3938 208.859 47.4259 208.868 47.4504ZM219.454 44.9174C219.564 44.9174 219.651 44.9572 219.716 45.0367C219.78 45.1132 219.812 45.2203 219.812 45.358C219.812 45.3916 219.81 45.4268 219.807 45.4635C219.801 45.5002 219.795 45.5308 219.789 45.5553C219.697 45.5339 219.598 45.5216 219.491 45.5186C219.466 45.7052 219.397 45.9025 219.284 46.1105C219.174 46.3185 219.039 46.5143 218.88 46.6978C218.721 46.8783 218.548 47.0374 218.362 47.1751C218.172 47.3127 217.986 47.4045 217.802 47.4504C217.227 47.4381 216.808 47.2898 216.545 47.0053C216.282 46.7208 216.15 46.2757 216.15 45.67C216.15 45.2295 216.231 44.8027 216.393 44.3897C216.559 43.9768 216.776 43.6097 217.045 43.2885C217.314 42.9673 217.623 42.7088 217.972 42.513C218.321 42.3172 218.683 42.2193 219.059 42.2193C219.356 42.2193 219.587 42.282 219.752 42.4074C219.917 42.5329 220 42.7088 220 42.9351C220 43.085 219.965 43.2242 219.894 43.3527C219.824 43.4812 219.706 43.6204 219.541 43.7703C219.443 43.7397 219.358 43.6877 219.284 43.6143C219.214 43.5378 219.169 43.4506 219.151 43.3527C219.298 43.2456 219.4 43.1462 219.459 43.0544C219.52 42.9657 219.55 42.8587 219.55 42.7332C219.55 42.5374 219.433 42.4396 219.197 42.4396C219.004 42.4396 218.798 42.5114 218.578 42.6552C218.357 42.799 218.135 43.0055 217.912 43.2747C217.594 43.6571 217.363 44.0502 217.219 44.454C217.072 44.8578 216.999 45.3121 216.999 45.8168C216.999 46.0065 217.019 46.1778 217.059 46.3307C217.095 46.4868 217.146 46.6229 217.21 46.7391C217.274 46.8523 217.351 46.9441 217.44 47.0145C217.528 47.0818 217.623 47.12 217.724 47.1292C217.862 47.0986 217.999 47.0298 218.137 46.9227C218.275 46.8126 218.4 46.6841 218.513 46.5372C218.626 46.3873 218.723 46.2283 218.802 46.06C218.882 45.8918 218.929 45.7296 218.945 45.5736C218.825 45.6012 218.711 45.6256 218.6 45.647C218.493 45.6715 218.389 45.6837 218.288 45.6837C218.16 45.6837 218.048 45.6516 217.953 45.5874C217.856 45.5231 217.79 45.436 217.756 45.3258C217.833 45.283 217.946 45.2371 218.096 45.1882C218.243 45.1423 218.4 45.0995 218.568 45.0597C218.734 45.0169 218.897 44.9832 219.059 44.9587C219.218 44.9312 219.35 44.9174 219.454 44.9174Z" />
</svg>
